<?xml version="1.0" encoding="utf-8"?>
<svg version="1.1" id="Layer_1" xmlns="http://www.w3.org/2000/svg" xmlns:xlink="http://www.w3.org/1999/xlink" x="0px" y="0px"
	 viewBox="0 0 355 163" enable-background="new 0 0 355 163" xml:space="preserve">
<g>
	<path fill="#FFF" d="M43.4,47.1l1.6-4.5c1.6-4.8,1.9-6.2,3-11h0.5c1,4.8,1.4,5.9,3.2,11l1.6,4.5c0.8,2.4,1.1,3.1,2.1,5.3
		c-2.4-0.2-3.1-0.2-5.8-0.2h-2.6c-2.6,0-3.2,0-5.5,0.2C42.4,50.2,42.5,49.7,43.4,47.1 M36.8,65.8h22.9l3.3,9.9h19.4l-26.9-68H41.4
		l-26.7,68h18.9L36.8,65.8z M267.7,36.5c5.5,0,9,2.5,11.4,8c-3.2-0.3-3.9-0.3-7.4-0.3h-9c-3.2,0-3.7,0-6.5,0.3
		C257.8,39.3,262,36.5,267.7,36.5 M293.7,55c-0.1-10.4-1.1-15.6-4.3-20.3c-5-7.5-12.9-11.8-21.9-11.8c-14.9,0-26.5,11.9-26.5,27.3
		c0,15.6,11.5,27.1,27,27.1c11.6,0,20.9-6.6,24.1-17.1h-15.3c-3,3.1-5.2,4-9.5,4c-6.9,0-10.7-3-12.2-9.5c2,0.3,2.6,0.3,4.9,0.3
		H293.7z M248.1,24.1h-17.5l-7.4,10.3c-3.6,5-4.5,6.3-7.5,11.3l-0.5-0.2c0.5-6,0.6-7.6,0.6-14.2V7.8h-14.8v68h14.8V63.1
		c0-6.4-0.1-8-0.6-13.9l0.5-0.1c3.1,5.8,3.9,7.4,7.6,13.3l8.3,13.4h18.5l-20.1-28.3L248.1,24.1z M169.6,37.2c7,0,12.5,5.7,12.5,12.7
		s-5.5,12.8-12.2,12.8c-6.7,0-12.2-5.7-12.2-12.6C157.8,42.8,162.9,37.2,169.6,37.2 M168.7,77.2c6,0,9.7-1.7,13.9-6.1l0.4,0.2
		c-0.5,1.1-0.6,1.6-0.6,2.5v2h14.5V24.1h-14.6v2c0,0.6,0.2,1.2,0.6,2.6l-0.3,0.2c-4.2-4.4-8.4-6.2-14.2-6.2
		c-14.7,0-26.2,12-26.2,27.2C142.4,65.4,153.8,77.2,168.7,77.2 M100,75.8l4.2-15.8c1.9-7.2,2.4-9.4,3.5-16.6h0.6
		c1,7.2,1.5,9.4,3.3,16.7l4.1,15.7h14l16.5-51.7h-14.4l-4.8,17.1c-2,7.1-2.5,9.3-3.7,16.4h-0.6c-1-7.1-1.4-9.1-3.3-16.4l-4.4-17.1
		h-13.5l-4.7,16.8c-2.1,7.5-2.6,9.6-3.8,16.9h-0.6c-0.9-7.4-1.3-9.6-3.1-17l-3.9-16.7H70.2l15,51.7H100z M340,30.3
		c-3.3-4.9-8.6-7.6-14.7-7.6c-5.8,0-10.5,2.2-14.7,7.1l-0.4-0.2c0.5-1.5,0.7-2.1,0.7-3.2v-2.4H296v51.7h14.9V46.8c0-6,3.3-10,8.5-10
		c4.9,0,8.2,3.2,8.2,8.3v30.7h14.9V42.8C342.5,37,341.7,32.8,340,30.3"/>
	<path fill="#FFF" d="M129.8,134.4c-11,0-19.2-8-19.2-18.7c0-10.2,8.5-18.5,18.9-18.5c10.5,0,18.8,8.2,18.8,18.6
		C148.3,126,139.9,134.4,129.8,134.4 M192.8,115.3c-2,7-2.4,9-3.7,15.9h-0.6c-1.2-6.9-1.6-8.9-3.7-16l-9.5-33.8h-18.8l6.7,21.7
		C158.2,89.7,144.8,80,129.1,80c-19.9,0-36.4,16.4-36.4,36.3c0,6.6,1.9,12.8,5.2,18.2H82.6c-1.1,0-1.3,0-2.3,0.3
		c0.3-1,0.3-1.2,0.3-2.3v-51H62.9V150h38v-11.3c6.6,7.8,16.5,12.9,27.5,12.9c21,0,37.3-15.8,37.3-36.1c0-2.7-0.3-5.4-0.9-8
		l13.2,42.5h19.8l22.2-65.8V150H258v-14.8h-18.9c-1.1,0-1.3,0-2.3,0.3c0.3-1,0.3-1.2,0.3-2.3v-7.8c0-1.1,0-1.3-0.3-2.3
		c1,0.3,1.2,0.3,2.3,0.3H258v-15.7h-18.9c-1.1,0-1.3,0-2.3,0.3c0.3-1,0.3-1.2,0.3-2.3v-6.8c0-1.1,0-1.3-0.3-2.3
		c1,0.3,1.2,0.3,2.3,0.3H258V81.4h-55.3L192.8,115.3z"/>
	<path fill="#FFF" d="M290.2,108.1c-1.9,1.5-3.9,3.6-4.6,4.5c-0.7,0.9-1.4,1.7-1.4,1.7s-0.7-0.8-1.4-1.7c-0.7-0.9-2.7-3-4.6-4.5
		c-1.9-1.5-5.7-4.6-5.6-8.9c0.1-4.3,3.4-5.9,4.9-6.3c1.4-0.4,4.5-0.2,6.6,3.3h0.1c2.1-3.5,5.2-3.7,6.6-3.3c1.4,0.4,4.8,2,4.9,6.3
		C295.8,103.4,292,106.6,290.2,108.1"/>
	<path fill="#FFF" d="M284.2,84.4c-9.7,0-17.5,7.9-17.5,17.5c0,9.7,7.9,17.5,17.5,17.5s17.5-7.9,17.5-17.5
		C301.7,92.3,293.9,84.4,284.2,84.4 M284.2,123.8c-12.1,0-21.9-9.8-21.9-21.9c0-12.1,9.8-21.9,21.9-21.9c12.1,0,21.9,9.8,21.9,21.9
		C306.1,114,296.3,123.8,284.2,123.8"/>
</g>
</svg>
