<?xml version="1.0" encoding="utf-8"?>
<!-- Generator: Adobe Illustrator 18.1.0, SVG Export Plug-In . SVG Version: 6.00 Build 0)  -->
<svg version="1.1" id="Layer_1" xmlns="http://www.w3.org/2000/svg" xmlns:xlink="http://www.w3.org/1999/xlink" x="0px" y="0px"
	 viewBox="-297.5 354 57 86" enable-background="new -297.5 354 57 86" xml:space="preserve">
<g>
	<linearGradient id="SVGID_1_" gradientUnits="userSpaceOnUse" x1="-259.6805" y1="428.5558" x2="-260.9518" y2="348.7165">
		<stop  offset="7.732781e-03" style="stop-color:#2C95A7"/>
		<stop  offset="1" style="stop-color:#4BC7DC"/>
	</linearGradient>
	<path fill="url(#SVGID_1_)" d="M-253.3,387.5c-0.5-0.2-1.2-0.4-1.8-0.5c-0.7-0.1-1.4-0.2-2.2-0.2c-0.8,0-1.5,0.1-2.3,0.3
		c-0.8,0.2-1.5,0.4-2.3,0.7c-0.7,0.3-1.4,0.7-2.1,1.2c-0.6,0.5-1.3,1-1.8,1.5c-0.6,0.6-1.1,1.1-1.5,1.8c-0.9,1.2-1.4,2.6-1.8,3.8
		c-0.2,0.6-0.3,1.2-0.4,1.8c-0.1,0.6-0.1,1.1-0.1,1.5c0,0.2,0,0.4,0,0.6c0.2-0.2,0.3-0.4,0.5-0.6c0.9-1,2.3-2.4,3.7-3.6
		c0.7-0.6,1.5-1.2,2.2-1.6c0.4-0.2,0.7-0.4,1.1-0.7c0.4-0.2,0.7-0.4,1-0.5c0.3-0.1,0.6-0.2,0.9-0.4c0.3-0.1,0.5-0.2,0.7-0.2
		c0.4-0.1,0.6-0.2,0.6-0.2s-0.2,0.1-0.6,0.2c-0.2,0.1-0.4,0.1-0.7,0.3c-0.3,0.1-0.5,0.3-0.8,0.4c-0.3,0.2-0.6,0.4-1,0.6
		c-0.3,0.2-0.7,0.5-1,0.7c-0.7,0.5-1.4,1.1-2,1.8c-1.3,1.3-2.5,2.7-3.3,3.8c-0.2,0.3-0.4,0.6-0.6,0.8c0.2,0,0.5,0,0.8,0
		c0.4,0,0.9,0,1.4-0.1c0.5-0.1,1.1-0.1,1.7-0.2c0.6-0.1,1.2-0.3,1.8-0.4c0.6-0.2,1.2-0.4,1.8-0.6c0.6-0.2,1.1-0.5,1.7-0.8
		c0.5-0.3,1.1-0.6,1.6-0.9c1-0.7,1.9-1.4,2.7-2.3c0.4-0.4,0.8-0.9,1.1-1.3c0.4-0.4,0.7-0.9,1-1.4c0.3-0.4,0.6-0.9,0.9-1.3
		c0.3-0.4,0.6-0.8,0.8-1.2c0.2-0.3,0.4-0.7,0.6-0.8c0.1-0.2,0.2-0.3,0.2-0.3s-0.1-0.1-0.3-0.3c-0.2-0.1-0.5-0.4-0.8-0.6
		C-252.3,388-252.8,387.7-253.3,387.5z"/>
	<linearGradient id="SVGID_2_" gradientUnits="userSpaceOnUse" x1="-268.5433" y1="428.697" x2="-269.8146" y2="348.8577">
		<stop  offset="7.732781e-03" style="stop-color:#2C95A7"/>
		<stop  offset="1" style="stop-color:#4BC7DC"/>
	</linearGradient>
	<path fill="url(#SVGID_2_)" d="M-241.5,408v-4.5h-28.8c0.2-4.4,0.9-9,1.4-11.8c0.3-1.6,0.6-3,0.8-4.3c2.5-0.2,4.5-2.2,4.5-4.7
		c0-0.3,0-0.6-0.1-1c0.2,0.2,0.3,0.4,0.5,0.5c1.9,1.9,4.9,1.9,6.7,0c1.8-1.8,1.8-4.7,0.2-6.5c2.6-0.1,4.7-2.2,4.7-4.8
		c0-2.6-2.1-4.8-4.8-4.8c-0.2,0-0.4,0-0.7,0c0.1-0.1,0.3-0.2,0.4-0.3c1.9-1.9,1.9-4.9,0-6.7c-1.9-1.9-4.9-1.9-6.7,0
		c-0.1,0.1-0.3,0.3-0.4,0.5c0-0.1,0-0.3,0-0.4c0-2.6-2.1-4.8-4.8-4.8c-2.5,0-4.6,2-4.7,4.5c-1.9-1.7-4.8-1.7-6.6,0.1
		c-1.9,1.9-1.9,4.9,0,6.7c0.2,0.2,0.5,0.4,0.7,0.6c-0.2,0-0.4,0-0.6,0c-2.6,0-4.8,2.1-4.8,4.8c0,2.6,2.1,4.7,4.7,4.8
		c-1.8,1.9-1.8,4.8,0,6.7c1.8,1.8,4.8,1.9,6.7,0c0,0,0,0,0,0c0,2.2,1.5,4,3.5,4.6c-0.2,1.2-0.5,2.6-0.8,4.1c-0.4,2-0.9,4.2-1.2,6.3
		c0,0,0-0.1,0-0.1c-0.2-0.9-0.7-1.8-1.3-2.7c-0.3-0.4-0.7-0.9-1.1-1.2c-0.4-0.4-0.8-0.7-1.3-1.1c-0.5-0.3-1-0.6-1.5-0.8
		c-0.5-0.2-1.1-0.4-1.6-0.5c-0.6-0.1-1.1-0.2-1.6-0.2c-0.6,0-1.1,0-1.5,0.1c-0.5,0.1-0.9,0.2-1.3,0.4c-0.4,0.1-0.7,0.4-1,0.5
		c-0.3,0.2-0.5,0.3-0.6,0.4c-0.1,0.1-0.2,0.2-0.2,0.2s0.1,0.1,0.2,0.2c0.1,0.1,0.2,0.4,0.4,0.6c0.2,0.2,0.3,0.5,0.6,0.8
		c0.2,0.3,0.4,0.6,0.7,0.9c0.2,0.3,0.5,0.7,0.7,1c0.3,0.3,0.5,0.6,0.8,0.9c0.6,0.6,1.2,1.1,1.9,1.6c0.3,0.3,0.7,0.5,1.1,0.7
		c0.4,0.2,0.8,0.4,1.2,0.6c0.4,0.2,0.8,0.3,1.3,0.4c0.4,0.1,0.8,0.2,1.3,0.3c0.4,0.1,0.8,0.1,1.2,0.2c0.4,0,0.7,0.1,1,0.1
		c0.2,0,0.3,0,0.5,0c0,0.7,0,1.5,0,2.5h-24.5v4.5h24.9c0.1,0.8,0.2,1.5,0.4,2.3h-23.4c0,0,3,28.2,12.4,28.2c9.4,0,12.7,0,24.5,0
		c11.8,0,13.7-28.2,13.7-28.2H-270c-0.1-0.7-0.2-1.5-0.2-2.3L-241.5,408L-241.5,408z M-272.3,371c0-2.3,1.9-4.2,4.2-4.2
		c2.3,0,4.2,1.9,4.2,4.2c0,2.3-1.9,4.2-4.2,4.2C-270.5,375.1-272.3,373.3-272.3,371z M-272.2,400.4c-0.6-0.8-1.4-1.8-2.4-2.7
		c-0.5-0.5-1-0.9-1.4-1.3c-0.2-0.2-0.5-0.3-0.7-0.5c-0.2-0.1-0.5-0.3-0.7-0.4c-0.2-0.1-0.4-0.2-0.6-0.3c-0.2-0.1-0.3-0.1-0.5-0.2
		c-0.3-0.1-0.4-0.2-0.4-0.2s0.2,0,0.4,0.1c0.1,0,0.3,0.1,0.5,0.2c0.2,0.1,0.4,0.2,0.6,0.3c0.2,0.1,0.5,0.2,0.7,0.4
		c0.2,0.2,0.5,0.3,0.8,0.5c0.5,0.3,1.1,0.7,1.6,1.2c1,0.8,1.8,1.7,2.5,2.4c0,0.3-0.1,0.7-0.1,1C-271.9,400.7-272,400.6-272.2,400.4z
		"/>
</g>
</svg>
