<?xml version="1.0" encoding="utf-8"?>
<!-- Generator: Adobe Illustrator 18.1.0, SVG Export Plug-In . SVG Version: 6.00 Build 0)  -->
<svg version="1.1" id="Capa_1" xmlns:sketch="http://www.bohemiancoding.com/sketch/ns"
	 xmlns="http://www.w3.org/2000/svg" xmlns:xlink="http://www.w3.org/1999/xlink" x="0px" y="0px" viewBox="0 615 222 177"
	 enable-background="new 0 615 222 177" xml:space="preserve">
<title>icon 25 one finger tap hold</title>
<desc>Created with Sketch.</desc>
<g>
	<path fill="#00AAA3" d="M153.1,781.5c-10.3,0-19-2.6-26.6-7.9c-6.5-4.6-12.1-11-17.7-20.3c-7-11.8-13.4-21.5-18.6-29.3
		c-5.2-7.8-9.3-14-11.6-18.8c-1.2-2.4-4.2-8.7-0.1-12.8c1.5-1.5,3.5-2.3,5.8-2.3c5.9,0,13.9,5.2,25.1,16.2v-48.5
		c0-5.9,5-10.9,10.9-10.9c5.9,0,10.9,5,10.9,10.9v24.6c1.1-4.9,5.5-8.6,10.6-8.6c5.9,0,10.9,5,10.9,10.9v3.1
		c1.1-4.9,5.5-8.6,10.6-8.6c5.9,0,10.9,5,10.9,10.9v3.1c1.1-4.9,5.5-8.6,10.6-8.6c5.6,0,10.7,4.7,11.4,10.5c0,0.1,0,0.2,0,0.3v43
		c0,11.4-4.5,22.2-12.7,30.4C175.3,776.9,164.5,781.5,153.1,781.5z M84.3,695.6c-1,0-1.5,0.4-1.8,0.7c-2.3,2.3,4.5,12.6,12.4,24.5
		c5.2,7.9,11.7,17.6,18.7,29.6c5.2,8.6,10.3,14.5,16.1,18.6c6.6,4.6,14.3,6.9,23.4,6.9c9.9,0,19.3-3.9,26.4-11.1
		c7.1-7.1,11.1-16.5,11.1-26.4v-42.8c-0.4-3-3.1-5.4-5.8-5.4c-2.7,0-5.3,2.5-5.3,5.3v13.4c0,1.6-1.3,2.8-2.8,2.8h-5.4
		c-1.6,0-2.8-1.3-2.8-2.8v-18.8c0-2.7-2.5-5.3-5.3-5.3c-2.7,0-5.3,2.5-5.3,5.3v13.4c0,1.6-1.3,2.8-2.8,2.8h-5.4
		c-1.6,0-2.8-1.3-2.8-2.8v-18.8c0-2.7-2.5-5.3-5.3-5.3c-2.7,0-5.3,2.5-5.3,5.3v24.2c0,1.6-1.3,2.8-2.8,2.8h-5.4
		c-1.6,0-2.8-1.3-2.8-2.8v-51.1c0-2.7-2.5-5.3-5.3-5.3s-5.3,2.5-5.3,5.3v55.4c0,1.1-0.7,2.2-1.8,2.6c-1.1,0.4-2.3,0.2-3.1-0.7
		C94,698.1,87,695.6,84.3,695.6z"/>
</g>
<g>
	<path fill="#00AAA3" d="M106.8,657.7c0-7.5,5.9-13.4,13.4-13.4s13.4,5.9,13.4,13.4v12.9c3.2-3.2,5.4-8.1,5.4-12.9
		c0-10.2-8.6-18.8-18.8-18.8s-18.8,8.6-18.8,18.8c0,5.4,2.2,9.7,5.4,12.9V657.7z"/>
</g>
<polygon fill="#00AAA3" points="31.3,657 94.9,657 94.9,651.7 32,651.7 44.2,639.5 40.4,635.7 21.4,654.7 40.4,673.7 44.2,669.9 "/>
</svg>
