<?xml version="1.0" encoding="utf-8"?>
<!-- Generator: Adobe Illustrator 18.1.0, SVG Export Plug-In . SVG Version: 6.00 Build 0)  -->
<svg version="1.1" id="Layer_1" xmlns="http://www.w3.org/2000/svg" xmlns:xlink="http://www.w3.org/1999/xlink" x="0px" y="0px"
	 viewBox="0 0 281 27" enable-background="new 0 0 281 27" xml:space="preserve">
<g>
	<path fill="#FFFFFF" d="M19.8,18.5c0,2.3-1,4.1-2.9,5.4s-4.4,1.9-7.3,1.9c-3.9,0-7-0.9-9.2-2.7L1.6,21c2.1,1.6,4.7,2.3,7.9,2.3
		c2.2,0,4-0.4,5.4-1.2c1.4-0.8,2.1-2,2.1-3.6c0-0.9-0.3-1.7-1-2.3c-0.7-0.6-1.6-1-2.7-1.2c-1.1-0.2-2.3-0.4-3.5-0.6
		s-2.4-0.4-3.7-0.8c-1.3-0.4-2.3-0.8-3-1.5c-1.3-1-1.9-2.4-1.9-4.3c0-2.1,0.8-3.8,2.5-5c1.7-1.2,3.9-1.8,6.7-1.8
		c1.7,0,3.4,0.2,5,0.7c1.6,0.4,2.9,1,3.8,1.6L18,5.6c-2.2-1.3-4.6-2-7.4-2c-2.2,0-3.8,0.4-4.9,1.2C4.5,5.7,4,6.6,4,7.8
		c0,0.9,0.3,1.7,0.9,2.3s1.3,1,2.3,1.3c0.9,0.3,2,0.5,3.1,0.6c1.1,0.2,2.2,0.4,3.4,0.6c1.1,0.2,2.1,0.5,3.1,0.9
		c0.9,0.4,1.7,1,2.3,1.8C19.5,16.2,19.8,17.2,19.8,18.5z"/>
	<path fill="#FFFFFF" d="M45.7,25.2c-0.6,0.2-1.3,0.3-2.2,0.3c-1.3,0-2.5-0.4-3.6-1.2c-0.8-0.6-1.6-1.4-2.4-2.5
		c-0.8-1.1-1.4-2.1-1.9-3c-0.5-0.9-1.1-1.7-1.7-2.4c-0.6-0.7-1.3-1.1-1.9-1.1h-3.3v10H26V1.4h7.2c2.1,0,3.8,0.2,5,0.6
		c3.3,1.1,4.9,3.1,4.9,6.2c0,1.8-0.6,3.3-1.9,4.5s-3.1,1.9-5.4,2.2V15c0.5,0.2,1,0.8,1.6,1.8c0.6,1,1.2,2,2,3.1
		c0.7,1.1,1.4,1.9,2.2,2.5c0.7,0.5,1.5,0.8,2.3,0.8c0.5,0,0.9-0.1,1.4-0.2L45.7,25.2z M40.3,8.2c0-1.8-0.9-3.1-2.8-3.8
		c-1-0.4-2.4-0.5-4.3-0.5h-4.5V13h3.8c1.8,0,3.2-0.1,4.1-0.4C39,11.8,40.3,10.4,40.3,8.2z"/>
	<path fill="#FFFFFF" d="M52.4,25.4h-2.7V1.4h2.7V25.4z"/>
	<path fill="#FFFFFF" d="M85.6,8.8c0,1.9-0.5,3.4-1.6,4.7c-1.1,1.2-2.5,2.1-4.3,2.5c-1.4,0.4-3.2,0.5-5.3,0.5h-3.3v8.8h-2.7V1.4h6.8
		c2.3,0,4.1,0.3,5.6,0.8C84,3.4,85.6,5.6,85.6,8.8z M82.8,9c0-2.2-1-3.7-2.9-4.5c-1.1-0.4-2.8-0.7-5-0.7h-3.7v10.4h3.3
		c2.1,0,3.6-0.1,4.6-0.4C81.5,13,82.8,11.4,82.8,9z"/>
	<path fill="#FFFFFF" d="M111,25.2c-0.6,0.2-1.3,0.3-2.2,0.3c-1.3,0-2.5-0.4-3.6-1.2c-0.8-0.6-1.6-1.4-2.4-2.5
		c-0.8-1.1-1.4-2.1-1.9-3c-0.5-0.9-1.1-1.7-1.7-2.4c-0.6-0.7-1.3-1.1-1.9-1.1h-3.3v10h-2.7V1.4h7.2c2.1,0,3.8,0.2,5,0.6
		c3.3,1.1,4.9,3.1,4.9,6.2c0,1.8-0.6,3.3-1.9,4.5c-1.3,1.2-3.1,1.9-5.4,2.2V15c0.5,0.2,1,0.8,1.6,1.8c0.6,1,1.2,2,2,3.1
		c0.7,1.1,1.4,1.9,2.2,2.5c0.7,0.5,1.5,0.8,2.3,0.8c0.5,0,0.9-0.1,1.4-0.2L111,25.2z M105.5,8.2c0-1.8-0.9-3.1-2.8-3.8
		c-1-0.4-2.4-0.5-4.3-0.5h-4.5V13h3.8c1.8,0,3.2-0.1,4.1-0.4C104.3,11.8,105.5,10.4,105.5,8.2z"/>
	<path fill="#FFFFFF" d="M131.7,25.4h-16.7V1.4h16.5v2.4h-13.8V12h12.5v2.4h-12.5V23h14V25.4z"/>
	<path fill="#FFFFFF" d="M164.6,25.4H162V6.2h-0.1l-10.6,13h-0.5l-10.7-13H140v19.2h-2.7V1.4h2.3l11.3,14h0.1l11.3-14h2.3V25.4z"/>
	<path fill="#FFFFFF" d="M199.7,18.4c0,3.2-1.6,5.2-4.9,6.3c-1.4,0.4-3.2,0.7-5.3,0.7h-8.7V1.4h8.3c1.5,0,2.8,0.1,3.8,0.4
		c3.3,0.8,5,2.7,5,5.7c0,1.2-0.3,2.3-0.9,3.2c-0.6,0.9-1.5,1.6-2.7,2v0.1c0.8,0.1,1.6,0.3,2.4,0.7c1,0.5,1.7,1.1,2.3,2
		C199.4,16.3,199.7,17.3,199.7,18.4z M195,7.8c0-1.9-1-3.1-2.9-3.6c-0.8-0.2-1.8-0.3-3.2-0.3h-5.4V12h5c1.4,0,2.5-0.1,3.3-0.4
		C193.9,10.9,195,9.6,195,7.8z M196.8,18.4c0-1.6-0.8-2.7-2.3-3.4c-1-0.5-2.5-0.7-4.4-0.7h-6.8V23h6c1.8,0,3.2-0.2,4.2-0.5
		C195.8,21.9,196.8,20.5,196.8,18.4z"/>
	<path fill="#FFFFFF" d="M228.6,25.4h-3.1l-3.8-7.6h-12.5l-3.7,7.6h-3.1l11.9-24.1h2.1L228.6,25.4z M220.5,15.4l-5.2-10.2h-0.1
		l-5,10.2H220.5z"/>
	<path fill="#FFFFFF" d="M251.8,18.4c0,3.2-1.6,5.2-4.9,6.3c-1.4,0.4-3.2,0.7-5.3,0.7h-8.7V1.4h8.3c1.5,0,2.8,0.1,3.8,0.4
		c3.3,0.8,5,2.7,5,5.7c0,1.2-0.3,2.3-0.9,3.2c-0.6,0.9-1.5,1.6-2.7,2v0.1c0.8,0.1,1.6,0.3,2.4,0.7c1,0.5,1.7,1.1,2.3,2
		C251.5,16.3,251.8,17.3,251.8,18.4z M247.1,7.8c0-1.9-1-3.1-2.9-3.6c-0.8-0.2-1.8-0.3-3.2-0.3h-5.4V12h5c1.4,0,2.5-0.1,3.3-0.4
		C246,10.9,247.1,9.6,247.1,7.8z M249,18.4c0-1.6-0.8-2.7-2.3-3.4c-1-0.5-2.5-0.7-4.4-0.7h-6.8V23h6c1.8,0,3.2-0.2,4.2-0.5
		C247.9,21.9,249,20.5,249,18.4z"/>
	<path fill="#FFFFFF" d="M280.7,25.4h-3.1l-3.8-7.6h-12.5l-3.7,7.6h-3.1l11.9-24.1h2.1L280.7,25.4z M272.6,15.4l-5.2-10.2h-0.1
		l-5,10.2H272.6z"/>
</g>
</svg>
