<?xml version="1.0" encoding="utf-8"?>
<!-- Generator: Adobe Illustrator 18.1.0, SVG Export Plug-In . SVG Version: 6.00 Build 0)  -->
<svg version="1.1" id="Layer_1" xmlns="http://www.w3.org/2000/svg" xmlns:xlink="http://www.w3.org/1999/xlink" x="0px" y="0px"
	 viewBox="0 467 612 325" enable-background="new 0 467 612 325" xml:space="preserve">
<g id="Objects">
	<polygon opacity="0.5" fill="none" stroke="#CCCCCC" stroke-width="0.75" stroke-miterlimit="10" points="126.2,582.8 128.5,595.9 
		131.7,611.9 	"/>
	<path opacity="0.5" fill="none" stroke="#CCCCCC" stroke-width="0.75" stroke-miterlimit="10" d="M145.3,596.1l11.2,23.4
		L145.3,596.1z"/>
	<path opacity="0.5" fill="none" stroke="#CCCCCC" stroke-width="0.75" stroke-miterlimit="10" d="M170.2,591.7l5.6-6.7
		c0,0-17-13.6-17.1-13.7L170.2,591.7z"/>
	<polygon opacity="0.5" fill="none" stroke="#CCCCCC" stroke-width="0.75" stroke-miterlimit="10" points="150.1,605.9 145.3,596.1 
		131.7,611.9 	"/>
	<polygon opacity="0.5" fill="none" stroke="#CCCCCC" stroke-width="0.75" stroke-miterlimit="10" points="145.3,596.1 126.2,582.8 
		131.7,611.9 	"/>
	<path opacity="0.5" fill="none" stroke="#CCCCCC" stroke-width="0.75" stroke-miterlimit="10" d="M128.5,595.9l-41.7,31.7
		c0,0.2,44.8-15.8,44.8-15.8L128.5,595.9z"/>
	<path opacity="0.5" fill="none" stroke="#CCCCCC" stroke-width="0.75" stroke-miterlimit="10" d="M148.5,574.3l-11.8-8.3l-7.2-5.1
		c0.2,0.3-3.4,21.9-3.4,21.9L148.5,574.3z"/>
	<polygon opacity="0.5" fill="none" stroke="#CCCCCC" stroke-width="0.75" stroke-miterlimit="10" points="175.8,585 196.9,580.2 
		177.1,561 	"/>
	<path opacity="0.5" fill="none" stroke="#CCCCCC" stroke-width="0.75" stroke-miterlimit="10" d="M90.3,560.4l39.2,0.5
		c0,0-40-18.4-40.2-18.6L90.3,560.4z"/>
	<path opacity="0.5" fill="none" stroke="#CCCCCC" stroke-width="0.75" stroke-miterlimit="10" d="M148.9,685.7l28.8,6.6l26.2-25.6
		l-52.5,11.9c0,0,47.4-29,50.4-30.8"/>
	<polyline opacity="0.5" fill="none" stroke="#CCCCCC" stroke-width="0.75" stroke-miterlimit="10" points="150.4,736.1 
		177.6,692.3 202.6,712.9 	"/>
	
		<line opacity="0.5" fill="none" stroke="#CCCCCC" stroke-width="0.75" stroke-miterlimit="10" x1="144.5" y1="750.1" x2="167.9" y2="758.3"/>
	
		<line opacity="0.5" fill="none" stroke="#CCCCCC" stroke-width="0.75" stroke-miterlimit="10" x1="161" y1="755.9" x2="177.6" y2="736.1"/>
	
		<line opacity="0.5" fill="none" stroke="#CCCCCC" stroke-width="0.75" stroke-miterlimit="10" x1="157.2" y1="773.5" x2="164.6" y2="769.6"/>
	<polyline opacity="0.5" fill="none" stroke="#CCCCCC" stroke-width="0.75" stroke-miterlimit="10" points="96.5,617.2 90.3,560.4 
		77.6,551.2 89.4,542.3 79.6,514.7 35.3,553 37.9,517.2 63.7,547.1 48.6,497.6 	"/>
	<polyline opacity="0.5" fill="none" stroke="#CCCCCC" stroke-width="0.75" stroke-miterlimit="10" points="102,494 129.6,560.9 
		140.1,551.2 131.7,497.6 144,541.1 	"/>
	<polyline opacity="0.5" fill="none" stroke="#CCCCCC" stroke-width="0.75" stroke-miterlimit="10" points="203.3,586 175.8,585 
		168.5,603 170.2,591.7 	"/>
	
		<line opacity="0.5" fill="none" stroke="#CCCCCC" stroke-width="0.75" stroke-miterlimit="10" x1="196.9" y1="580.2" x2="203.1" y2="585.6"/>
	<polyline opacity="0.5" fill="none" stroke="#CCCCCC" stroke-width="0.75" stroke-miterlimit="10" points="178,545 177.1,561 
		166,545.6 	"/>
	<polyline opacity="0.5" fill="none" stroke="#CCCCCC" stroke-width="0.75" stroke-miterlimit="10" points="227.9,685 177.6,692.3 
		190.4,731.8 148.9,745.9 	"/>
	
		<line opacity="0.5" fill="none" stroke="#CCCCCC" stroke-width="0.75" stroke-miterlimit="10" x1="131.7" y1="611.9" x2="95.5" y2="652.1"/>
	<path opacity="0.5" fill="none" stroke="#CCCCCC" stroke-width="0.75" stroke-miterlimit="10" d="M297,645.6c0,0,32.1-5.8,31.4-5.7
		c-0.6,0.2-24,28.8-24,28.8"/>
	<polyline opacity="0.5" fill="none" stroke="#CCCCCC" stroke-width="0.75" stroke-miterlimit="10" points="340.8,682.8 
		328.5,639.9 337.8,604.3 	"/>
	<path opacity="0.5" fill="none" stroke="#CCCCCC" stroke-width="0.75" stroke-miterlimit="10" d="M328.5,639.9
		c0,0-39.5-23.6-40.1-23.6l11.9-26.2"/>
	<polyline opacity="0.5" fill="none" stroke="#CCCCCC" stroke-width="0.75" stroke-miterlimit="10" points="257.7,633.6 
		288.4,616.3 260.2,611.2 	"/>
	
		<line opacity="0.5" fill="none" stroke="#CCCCCC" stroke-width="0.75" stroke-miterlimit="10" x1="423.4" y1="512.5" x2="449.1" y2="500.2"/>
	
		<line opacity="0.5" fill="none" stroke="#CCCCCC" stroke-width="0.75" stroke-miterlimit="10" x1="466.2" y1="616.5" x2="468.6" y2="590.6"/>
	
		<line opacity="0.5" fill="none" stroke="#CCCCCC" stroke-width="0.75" stroke-miterlimit="10" x1="303.9" y1="573.2" x2="301.3" y2="552.4"/>
	<g>
		<polyline opacity="0.5" fill="none" stroke="#CCCCCC" stroke-width="0.75" stroke-miterlimit="10" points="500.6,564.8 
			444.5,522.7 481.8,488.4 504.8,521.4 507.6,538.4 		"/>
		<polyline opacity="0.5" fill="none" stroke="#CCCCCC" stroke-width="0.75" stroke-miterlimit="10" points="483.4,595.7 
			480.6,581.2 426.4,587.3 426.4,538 366.9,569.1 426.4,587.3 398.4,628.4 		"/>
		<path opacity="0.5" fill="none" stroke="#CCCCCC" stroke-width="0.75" stroke-miterlimit="10" d="M492.7,558.8
			c0,0-12.4,21-12.1,22.4L426.5,538l-18.8-33.4"/>
		<polyline opacity="0.5" fill="none" stroke="#CCCCCC" stroke-width="0.75" stroke-miterlimit="10" points="426.4,538 444.5,522.7 
			407.6,504.6 		"/>
		<polyline opacity="0.5" fill="none" stroke="#CCCCCC" stroke-width="0.75" stroke-miterlimit="10" points="565.3,520.1 
			444.5,522.7 443.5,500.9 		"/>
		<polyline opacity="0.5" fill="none" stroke="#CCCCCC" stroke-width="0.75" stroke-miterlimit="10" points="317.8,529 397.7,553 
			356.5,490.6 		"/>
		<polyline opacity="0.5" fill="none" stroke="#CCCCCC" stroke-width="0.75" stroke-miterlimit="10" points="516.6,486.8 
			504.8,521.4 535.3,497.7 		"/>
		
			<line opacity="0.5" fill="none" stroke="#CCCCCC" stroke-width="0.75" stroke-miterlimit="10" x1="477.3" y1="586.9" x2="480.6" y2="581.2"/>
		
			<line opacity="0.5" fill="none" stroke="#CCCCCC" stroke-width="0.75" stroke-miterlimit="10" x1="356.5" y1="574.8" x2="342.3" y2="535.6"/>
		<polyline opacity="0.5" fill="none" stroke="#CCCCCC" stroke-width="0.75" stroke-miterlimit="10" points="334.4,533.5 350.8,517 
			340.8,510.2 		"/>
		
			<line opacity="0.5" fill="none" stroke="#CCCCCC" stroke-width="0.75" stroke-miterlimit="10" x1="350.8" y1="517" x2="370" y2="512.5"/>
	</g>
	<polyline opacity="0.5" fill="none" stroke="#CCCCCC" stroke-width="0.75" stroke-miterlimit="10" points="453.2,671.9 
		496.1,692.2 498.5,709.1 	"/>
	<polyline opacity="0.5" fill="none" stroke="#CCCCCC" stroke-width="0.75" stroke-miterlimit="10" points="462.9,705 496.1,692.2 
		533.6,692.3 	"/>
	
		<line opacity="0.5" fill="none" stroke="#CCCCCC" stroke-width="0.75" stroke-miterlimit="10" x1="503.4" y1="679.5" x2="508.8" y2="692.2"/>
	<path opacity="0.5" fill="none" stroke="#CCCCCC" stroke-width="0.75" stroke-miterlimit="10" d="M67.1,619.7l3.7-4.5
		c0,0-11.5-9.2-11.6-9.3L67.1,619.7z"/>
	<polygon opacity="0.5" fill="none" stroke="#CCCCCC" stroke-width="0.75" stroke-miterlimit="10" points="70.8,615.2 85.1,611.9 
		71.8,599 	"/>
	<polyline opacity="0.5" fill="none" stroke="#CCCCCC" stroke-width="0.75" stroke-miterlimit="10" points="89.4,615.8 70.8,615.2 
		65.9,627.3 67.1,619.7 	"/>
	
		<line opacity="0.5" fill="none" stroke="#CCCCCC" stroke-width="0.75" stroke-miterlimit="10" x1="85.1" y1="611.9" x2="89.2" y2="615.6"/>
	<polyline opacity="0.5" fill="none" stroke="#CCCCCC" stroke-width="0.75" stroke-miterlimit="10" points="72.4,588.2 71.8,599 
		64.3,588.6 	"/>
</g>
<g id="mapa">
	<g opacity="0.69">
		
			<path fill="none" stroke="#00AAA3" stroke-width="1.8614" stroke-linecap="round" stroke-linejoin="round" stroke-miterlimit="10" d="
			M203.3,668.7c0.3,1.1,1.4,2.5,2.4,3l18.7,9c1.1,0.5,1.5,1.8,1,2.8l-11,22.5c-0.5,1.1-1.9,2.1-3.1,2.2l-8.6,1.3
			c-1.1,0.2-2.3,1.3-2.5,2.4l-1.1,6.1c-0.2,1.1-1.1,2.8-2,3.5l-23.2,19.8c-0.9,0.8-2.1,2.2-2.6,3.3L161,764.1
			c-0.5,1.1-0.3,2.6,0.5,3.4l6,6.5c0.8,0.8,0.5,1.3-0.6,1l-10.6-2.8c-1.1-0.3-2.4-1.5-2.8-2.5l-3.6-8.9c-0.5-1.1-0.5-2.9-0.3-4.1
			l13.8-55.7c0.3-1.1-0.2-2.7-1.1-3.5l-9-8.1c-0.8-0.8-1.8-2.4-2.1-3.5l-4.7-19c-0.3-1.1,0-2.9,0.6-3.9l4.7-7.6c0.6-1,0.2-1.7-1-1.5
			l-2.1,0.3c-1.1,0.2-2.7-0.5-3.4-1.4l-6.3-8.2c-0.7-0.9-2.1-2.1-3.2-2.7l-3.9-1.9c-1.1-0.5-2.8-1.3-3.9-1.7l-14-5
			c-1.1-0.4-2.5-1.5-3.1-2.5l-12.5-19.6c-0.6-1-1.6-2.7-2.1-3.7l-7-12.9c-0.5-1.1-1-2.8-1-4.1v-18.3c0-1.1-0.5-3-1.1-4L74.3,547
			c-0.6-1-1.9-2.4-2.9-3l-15-9.2c-1-0.6-2.7-0.7-3.7-0.1l-7.8,4.4c-1,0.5-2.8,1.5-3.8,2l-17.4,8.4c-1.1,0.5-1.1,0.3-0.2-0.4
			l10.2-8.3c0.9-0.8,0.7-1.5-0.5-1.8l-4.2-1c-1.1-0.2-2.4-1.4-2.7-2.5l-2-6.8c-0.3-1.1,0.2-2.7,1.1-3.4l6.3-5
			c0.9-0.8,0.7-1.5-0.5-1.6l-5.4-0.7c-1.1-0.2-1.8-1.2-1.5-2.4l0.8-3c0.3-1.1,1.5-2.1,2.7-2.1h2.9c1.1,0,1.6-0.8,0.9-1.8l-4.1-6.1
			c-0.7-1-0.4-2.3,0.7-2.9l13.7-8.1c1-0.6,2.7-0.6,3.7-0.1l27.8,15.3c1,0.5,2.6,0.4,3.4-0.5l8.5-8c0.8-0.8,2.4-1,3.4-0.4l21.4,12.6
			c1,0.6,2.8,1,4,0.8l44-4.7c1.1-0.2,2.1,0.8,2.1,1.9v20.2c0,1.1-0.9,2.3-2.1,2.5l-15.1,3c-1.1,0.2-2.4,1.3-2.8,2.4l-2.4,6.5
			c-0.4,1.1-0.1,2.7,0.7,3.6l15.8,16.8c0.8,0.8,2.4,1.5,3.6,1.2l0.3-0.1c1.1-0.2,2.2-1.2,2.4-2.4l2.7-20.8c0.2-1.1,1.2-2.1,2.4-2.2
			l8-0.4c1.1-0.1,2.4,0.8,2.8,1.9L180,551c0.4,1.1,1.5,1.5,2.5,0.9l2.8-1.7c1-0.6,2.2-0.2,2.7,0.8l12.4,27.6c0.5,1.1,0,2.4-1.1,2.8
			l-16.1,7.2c-1.1,0.5-2.8,1.3-3.8,1.9l-11.7,6.3c-1,0.5-2.4,1.8-3.1,2.8l-9.7,13.3c-0.7,0.9-1.2,2.7-1.2,3.8v4.1
			c0,1.1-0.9,2.3-2.1,2.4l-0.3,0.1c-1.1,0.2-2.4-0.6-2.8-1.7l-1.8-5c-0.4-1.1-1.7-1.8-2.8-1.7l-13.2,1.9c-1.1,0.2-2.4,1.2-2.8,2.3
			l-2.4,6.9c-0.4,1.1-0.2,2.8,0.5,3.7l2.1,2.9c0.7,1,2,1.1,2.9,0.4l3.1-2.5c0.9-0.8,2.6-1.2,3.8-1.1l2.2,0.2
			c1.1,0.1,1.8,1.1,1.5,2.2l-1.8,5.1c-0.4,1.1,0.2,2.1,1.5,2.1l3.4,0.2c1.1,0.1,2.4,1.1,2.7,2.2l1.5,5.5c0.3,1.1,1.5,2.4,2.6,2.8
			l1.1,0.4c1.1,0.4,2.5-0.2,3.1-1.1l1.6-2.6c0.6-1,2.1-1.8,3.2-1.6l21.5,2.1c1.1,0.2,2.9,0.8,3.8,1.5l13.9,10.3
			c0.9,0.7,2,2.2,2.2,3.4L203.3,668.7z M509.5,666.8c-0.5-1.1-1.1-0.9-1.3,0.2l-0.8,6.7c-0.2,1.1-1.1,1.8-2.3,1.4l-5.2-1.9
			c-1.1-0.4-1.8-1.7-1.4-2.8l0.5-1.8c0.3-1.1-0.4-2.1-1.5-2.2l-5.9-0.5c-1.1-0.1-2.8,0.5-3.7,1.3l-10,9.3c-0.8,0.8-2.4,1.8-3.6,2.2
			l-9.9,3.6c-1.1,0.4-1.8,1.7-1.6,2.8l2.6,14.7c0.2,1.1,0.1,3-0.2,4c-0.4,1.1,0.2,2.4,1.2,3l1.4,0.8c1,0.6,2.8,0.8,3.9,0.5l16.5-4.1
			c1.1-0.3,2.9,0,3.9,0.5l4.3,2.5c1,0.6,2.7,0.6,3.7,0.1h0.1c1-0.5,2.1-0.2,2.5,1l1.1,3.6c0.4,1.1,1.6,2.3,2.8,2.6l6.4,1.8
			c1.1,0.3,2.9,0.1,3.9-0.5l4-2.4c1-0.6,2-2.1,2.2-3.2l3.4-18.5c0.2-1.1-0.3-2.8-1.1-3.6l-8.4-8.3c-0.8-0.8-2-2.4-2.5-3.4
			L509.5,666.8z M456.9,652.3c0.3,1.1,1.5,2.2,2.6,2.4l6.7,1.3c1.1,0.2,2.4-0.5,2.8-1.6l3.7-11.5c0.4-1.1,0-2.6-0.8-3.3
			c-0.8-0.7-2.3-0.8-3.3-0.2l-11.1,7c-1,0.6-1.6,2.1-1.3,3.2L456.9,652.3z M493.2,650c-1.1,0.1-1.5,0.9-0.6,1.8l8.4,8.7
			c0.8,0.8,2.4,1.6,3.6,1.7l2.3,0.2c1.1,0.1,2.8-0.5,3.5-1.1c0.8-0.7,2.2-0.8,3.2-0.2l5.7,3.6c1,0.6,1.4,0.3,0.9-0.8l-2-4.1
			c-0.5-1.1-1.8-2.4-2.8-2.8l-13.5-6.5c-1.1-0.5-2.9-0.8-4.1-0.8L493.2,650z M512.2,556.6c-0.3-1.1-1.1-2.1-2-2.1
			c-0.8,0-1.5,1-1.5,2.1l-0.3,10.9c0,1.1-0.5,3-1,4.1l-5.7,12.2c-0.5,1.1-1.7,2.5-2.6,3.2l-6.3,4.6c-0.9,0.7-1.8,2.2-1.8,3.4
			l-0.2,2.1c-0.1,1.1,0.7,1.6,1.7,1.1l14-8.3c1-0.6,1.9-2.1,2-3.2l0.5-6.7c0.1-1.1,0.8-2.8,1.8-3.6l2.8-2.5c0.8-0.8,0.8-2.1-0.1-2.8
			l-1.3-1.1c-0.9-0.8-1.4-2.3-1.1-3.4l1.4-4.7c0.3-1.1,0.4-3,0.1-4.1L512.2,556.6z M558.9,708.8c-0.9-0.8-1.5-0.4-1.5,0.8l0.8,7.5
			c0.2,1.1-0.5,2.8-1.3,3.6L547,730c-0.8,0.8-0.6,1.5,0.5,1.7l4.2,0.4c1.1,0.2,2.7-0.6,3.3-1.6l5.2-7.9c0.6-1,1.8-2.5,2.4-3.5
			l3.4-4.5c0.7-0.9,0.4-1.8-0.6-1.9c-1.1-0.1-2.7-0.8-3.6-1.5L558.9,708.8z M274.8,532.1c0.4-1.1,0.7-1.1,0.7,0.1v8
			c0,1.1,0.9,1.8,2,1.3l4.6-2c1.1-0.5,2.4-1.7,3.1-2.7l0.1-0.2c0.6-1,0.7-2.7,0.2-3.7l-7.3-14c-0.5-1.1-1.8-1.4-2.8-0.7l-1.9,1.4
			c-1,0.7-1.7,2.1-1.6,3.4v0.5c0.1,1.1-0.5,2.9-1.2,3.7l-2.4,2.9c-0.8,0.9-1.4,2.6-1.5,3.7l-0.2,2.2c-0.1,1.1,0.8,2.1,2,2.1h1.9
			c1.1,0,2.4-0.9,2.8-2.1L274.8,532.1z M354.3,673.4c-0.9,0.7-1.7,2.3-1.8,3.4l-0.2,9.4c0,1.1,0.8,2.5,1.9,3l1.6,0.7
			c1.1,0.5,2.3-0.1,2.6-1.1l4.1-12.3c0.4-1.1,0.5-3,0.2-4.1l-0.5-2.7c-0.2-1.1-1.1-1.5-2.1-0.8L354.3,673.4z M544.1,531.3
			c-1.1,0.2-2.1,1.4-2,2.6l0.2,5.4c0.1,1.1-0.5,2.9-1.2,3.8l-8.3,10.1c-0.8,0.9-1.4,0.7-1.4-0.5l-0.3-10.9c0-1.1,0.5-2.9,1.3-3.7
			l11.6-14c0.8-0.9,0.4-1.5-0.8-1.3l-4.6,0.7c-1.1,0.2-2.8,0.9-3.7,1.7l-8.1,6.6c-0.9,0.8-2.6,1.3-3.8,1.2l-9.6-0.6
			c-1.1-0.1-2.8,0.5-3.7,1.4l-7.4,7.2c-0.8,0.8-0.8,2.1,0.2,2.8l4.1,3c0.9,0.7,1.4,2.1,1,3.3l-7.3,20.4c-0.4,1.1-1.7,2.1-2.8,2.4
			l-3.4,0.5c-1.1,0.2-2.7,1.1-3.3,2.1l-2.2,3.2c-0.7,1-1,2.7-0.7,3.8l1.1,4.7c0.3,1.1-0.4,2.5-1.4,3.1l-1.7,0.9
			c-1.1,0.5-2.1,0.1-2.3-1.1l-0.8-3.8c-0.2-1.1-1-2.8-1.7-3.8l-2.1-2.9c-0.7-0.9-1.9-1-2.8-0.2l-3.4,3.6c-0.8,0.8-1.1,2.4-0.8,3.6
			l3.6,10.3c0.4,1.1,0.2,2.8-0.3,3.9l-5.1,9.3c-0.5,1-2,1.9-3.1,2l-11.3,0.6c-1.1,0.1-2.6,0.9-3.2,1.9l-1.1,1.8
			c-0.6,1-0.5,2.6,0.1,3.6l4.7,7c0.7,1,0.5,2.4-0.5,3.1l-4.3,3.6c-0.9,0.8-2.3,0.7-3.1-0.2l-4.8-5c-0.8-0.8-1.5-0.6-1.5,0.6
			l-0.2,3.4c-0.1,1.1,0.5,2.8,1.4,3.7l3.9,4.4c0.8,0.8,1.6,2.5,1.9,3.7l2.1,9.3c0.2,1.1,1.4,2.4,2.4,2.8l4.4,1.5
			c1.1,0.4,2.9,1.1,4,1.5l7.4,3.1c1.1,0.5,1,0.6-0.2,0.5l-16.9-3.1c-1.1-0.2-2.8-1.1-3.7-1.8l-5.7-5.5c-0.8-0.8-2.1-2.3-2.8-3.2
			l-5.5-7.9c-0.7-1-0.4-1.3,0.7-0.8l7.1,3.6c1.1,0.5,1.5,0.2,0.9-0.9l-3-5.5c-0.5-1-1.1-2.8-1.2-4l-0.7-8.3
			c-0.1-1.1-1.1-1.9-2.2-1.6l-0.7,0.2c-1.1,0.3-2.4-0.4-3-1.4l-4.1-8.7c-0.5-1.1-1.7-1.4-2.7-0.7l-12.9,9c-1,0.7-1.8,2.1-1.8,3.4v3
			c0,1.1-0.7,2.8-1.5,3.7l-2.9,2.8c-0.8,0.8-1.8,0.6-2.3-0.5l-6-15c-0.5-1.1-1.4-2.8-2.1-3.6l-5.7-6.8c-0.8-0.9-2.3-1.8-3.4-2.1
			l-16.1-3c-1.1-0.2-2.8-1-3.7-1.8l-2.7-2.2c-0.9-0.8-2.3-1-3.1-0.5c-0.8,0.5-1.1,1.8-0.7,2.8l2.6,6.2c0.5,1.1,1.7,1.5,2.8,1
			l2.9-1.5c1.1-0.5,2.7-0.4,3.6,0.3l5.4,4.1c0.9,0.7,0.8,1.8-0.2,2.4l-22.4,13.4c-1,0.6-2.3,0.2-2.8-0.8L341.1,605
			c-0.5-1.1-1.6-1.8-2.4-1.7c-0.8,0.2-1,1.1-0.5,2.2l12.1,27.6c0.5,1.1,1.8,1.5,2.8,1.1l9.6-4.5c1.1-0.5,1.7,0,1.4,1.1l-3.1,10.6
			c-0.3,1.1-1.3,2.7-2.1,3.5l-10.3,9.3c-0.8,0.8-1.5,2.4-1.4,3.5l1.6,13.9c0.2,1.1-0.5,2.7-1.5,3.4l-4.2,3.3
			c-0.9,0.7-2.1,2.1-2.7,3.2l-11.9,22.3c-0.5,1.1-1.9,2.1-3.1,2.3l-9.7,1.8c-1.1,0.2-2.4-0.5-2.9-1.6l-10.9-26.2
			c-0.5-1.1-0.6-2.9-0.4-4.1l2.1-9.3c0.2-1.1,0.2-3-0.2-4.1l-6.3-19.6c-0.4-1.1-1.6-2-2.8-1.9l-21.4,1.4c-1.1,0.1-2.8-0.5-3.7-1.4
			l-11.3-10.9c-0.8-0.8-1.5-2.4-1.3-3.6l2.1-18.5c0.2-1.1,0.8-2.8,1.6-3.7l11.2-13.5c0.8-0.9,2.3-1.8,3.4-2l22.7-3.9
			c1.1-0.2,2.3,0.5,2.6,1.7l0.7,3c0.3,1.1,1.3,2.6,2.3,3.2l7.3,4.8c1,0.6,2.4,0.4,3.1-0.5l1.7-2.4c0.7-0.9,2.1-1.5,3.3-1.2l12.6,3.2
			c1.1,0.3,2.9,0,3.9-0.5l0.7-0.4c1-0.6,2.1-2,2.4-3.1l0.7-2.2c0.3-1.1-0.3-2.2-1.5-2.4l-7.3-1.2c-1.1-0.2-2.6-1.1-3.2-2.2l-1.6-2.8
			c-0.6-1-1.7-2.1-2.4-2.5c-0.8-0.4-1.6,0.2-2,1.4l-1.2,4.1c-0.3,1.1-1.2,1.3-1.9,0.4l-2.5-3.1c-0.8-0.9-1.3-2.6-1.2-3.8l0.1-1.1
			c0.1-1.1-0.6-2.8-1.5-3.4l-3.5-2.8c-0.9-0.8-2.5-1.8-3.6-2.3l-0.2-0.2c-1.1-0.5-1.8,0-1.8,1.1l0.1,1.2c0.1,1.1,0.9,2.7,1.9,3.4
			l5,3.4c1,0.7,1.1,1.9,0.4,2.8l-1.7,1.9c-0.8,0.9-2,0.8-2.7-0.1l-3.6-4.7c-0.7-0.9-1.9-2.4-2.7-3.4l-1.6-1.9
			c-0.8-0.9-2.2-1.2-3.3-0.7l-6.4,3.2c-1.1,0.5-2.4,1.8-3.1,2.8l-4.9,7.6c-0.6,1-2.1,1.7-3.3,1.5l-6.7-1.1c-1.1-0.2-2.1-1.3-2.2-2.4
			l-0.5-9.4c-0.1-1.1,0.8-2.1,2-2l9.7,0.7c1.1,0.1,1.6-0.7,1-1.7l-2.1-3.5c-0.6-1-1.5-2.7-2.1-3.7l-0.9-2c-0.5-1.1,0-2.2,1.1-2.6
			l6.5-2.1c1.1-0.4,2.6-1.5,3.3-2.4l3.3-4.4c0.7-0.9,2.2-1.8,3.4-1.9l0.5-0.1c1.1-0.1,1.9-1.1,1.6-2.2l-0.1-0.2
			c-0.2-1.1,0.1-2.8,0.8-3.8l0.5-0.7c0.7-0.9,1.6-0.8,2,0.3l1,2.8c0.4,1.1,1.7,2.1,2.8,2.1l9,0.2c1.1,0,2.4-0.8,2.9-1.9l2.2-5.6
			c0.5-1.1,1.7-1.7,2.8-1.3l1.1,0.4c1.1,0.4,1.8-0.2,1.5-1.4l-0.6-2.4c-0.3-1.1,0.4-2.4,1.5-2.7l3.8-1.2c1.1-0.4,1.5-1.3,0.8-2.1
			c-0.7-0.8-2.1-1.2-3.3-0.9l-3.1,0.8c-1.1,0.3-2.4-0.3-2.9-1.4l-0.9-2.1c-0.5-1.1-0.9-2-1-2s-0.2-0.2-0.1-0.2
			c0.1-0.2-0.2-0.8-0.5-1.5c-0.3-0.7,0.2-1.8,0.9-2.3c0.8-0.5,1.8-1.9,2.2-3l1-2.4c0.5-1.1,0.2-2.1-0.5-2.2
			c-0.8-0.1-1.9,0.5-2.7,1.5l-1.8,2.1c-0.8,0.9-1.8,2.5-2.2,3.6l-2,4.3c-0.5,1.1-0.2,2.7,0.5,3.5l1.2,1.3c0.8,0.8,1.1,2.4,0.7,3.6
			l-2.6,7c-0.4,1.1-1.7,2.4-2.8,2.8l-2.1,0.8c-1.1,0.5-2.3-0.2-2.6-1.3l-2.1-6.8c-0.4-1.1-1.5-1.5-2.5-1l-3.4,2
			c-1,0.6-2.6,0.6-3.5,0.1s-1.7-2-1.6-3.1l0.2-6.3c0-1.1,0.8-2.8,1.8-3.4l2.8-2.1c0.9-0.7,2.1-2.2,2.5-3.3l3.5-8.6
			c0.5-1.1,1.7-2.4,2.7-3l9.3-5c1-0.5,2.8-0.8,4-0.6L345,504c1.1,0.2,3.1,0.3,4.2,0.2l101.4-10.6c1.1-0.2,3.1-0.1,4.2,0.1
			l107.6,15.2c1.1,0.2,2.4,1.2,2.8,2.3l2.8,7.8c0.4,1.1-0.2,2.4-1.1,3.1l-11.5,6.3c-1,0.5-2.8,1.2-4,1.5L544.1,531.3z M349.1,576.3
			c0.6-1,0.2-2.3-0.8-2.8l-13.9-7.3c-1.1-0.5-2.4-0.2-3,0.8l-3.4,5.8c-0.6,1-0.6,2.7-0.1,3.7l0.4,0.6c0.5,1.1,2,1.8,3.1,1.5l6-1
			c1.1-0.2,3.1-0.1,4.1,0.2l3.4,0.9c1.1,0.3,2.5-0.2,3.1-1.3L349.1,576.3z M366.8,585.8c1.1,0.1,2-0.8,1.8-2l-1-6.3
			c-0.2-1.1-0.8-2.9-1.5-3.9L365,572c-0.7-1-0.3-2.1,0.8-2.6l0.2-0.1c1.1-0.5,2-1.8,2-3v-0.8c0-1.1-0.8-1.7-1.8-1.1l-6.9,3.7
			c-1,0.5-1.5,1.9-1.1,3l2.2,5.6c0.5,1.1,0.5,2.9,0.2,4.1l-0.6,2.4c-0.3,1.1,0.5,2.1,1.6,2.2L366.8,585.8z M217.2,505
			c-0.6-1-2-2.1-3.1-2.4l-5.4-1.5c-1.1-0.3-2.8,0.2-3.5,1l-8.8,9.4c-0.8,0.8-1.1,2.4-0.7,3.5l13.5,35.3c0.5,1.1,1.7,2.2,2.8,2.5
			l3,0.8c1.1,0.3,2.1-0.5,2.1-1.6l0.4-8.5c0.1-1.1,0.9-2.6,1.9-3.3l1.2-0.8c1-0.6,1.9-2.1,1.9-3.2v-0.6c0.1-1.1,0.6-3,1.1-4.1l3-5.6
			c0.5-1.1,0.6-2.8,0.1-3.8l-1.6-3.2c-0.5-1.1-1.5-2.8-2-3.7L217.2,505z"/>
	</g>
</g>
<g id="pontosELinhas">
	<polyline opacity="0.5" fill="none" stroke="#CCCCCC" stroke-width="0.75" stroke-miterlimit="10" points="136.2,650.4 
		128.2,699.4 176.5,729.2 	"/>
	
		<line opacity="0.5" fill="none" stroke="#CCCCCC" stroke-width="0.75" stroke-miterlimit="10" x1="226.1" y1="560.1" x2="214.4" y2="676.5"/>
	
		<line opacity="0.5" fill="none" stroke="#CCCCCC" stroke-width="0.75" stroke-miterlimit="10" x1="190.8" y1="602" x2="272.2" y2="636.4"/>
	<polyline opacity="0.5" fill="none" stroke="#CCCCCC" stroke-width="0.75" stroke-miterlimit="10" points="256.7,555.5 
		178.5,644.6 272.2,661.1 189,600.7 226.1,560.1 	"/>
	<polyline opacity="0.5" fill="none" stroke="#CCCCCC" stroke-width="0.75" stroke-miterlimit="10" points="151.8,652.7 
		135.2,727.9 175.6,746 	"/>
	<polyline opacity="0.5" fill="none" stroke="#CCCCCC" stroke-width="0.75" stroke-miterlimit="10" points="314,517.7 329.3,541.8 
		349.8,502 393.5,524.5 441.6,516.4 	"/>
	<polyline opacity="0.5" fill="none" stroke="#CCCCCC" stroke-width="0.75" stroke-miterlimit="10" points="361.3,703.7 
		412.7,660.3 449.4,678.3 466.3,712.4 532.4,685.6 	"/>
	<polyline opacity="0.5" fill="none" stroke="#CCCCCC" stroke-width="0.75" stroke-miterlimit="10" points="399.9,634.1 
		377.2,645.7 467.8,731.9 518.2,744.5 533.7,686.7 564.2,703.9 561.1,736.8 	"/>
	<polyline opacity="0.5" fill="none" stroke="#CCCCCC" stroke-width="0.75" stroke-miterlimit="10" points="466.3,712.4 
		450.1,676.7 481.2,657.7 503.4,616.3 502.1,688 495,678.7 	"/>
	<polyline opacity="0.5" fill="none" stroke="#CCCCCC" stroke-width="0.75" stroke-miterlimit="10" points="568.1,555.5 
		555.2,603.6 532.4,587.3 551.9,567.4 564.2,703.9 533.6,686.9 511.3,602.2 526.8,569.4 	"/>
	<polyline opacity="0.5" fill="none" stroke="#CCCCCC" stroke-width="0.75" stroke-miterlimit="10" points="267.9,509.7 314,517.7 
		255.5,555.7 247.9,547.1 329.3,541.8 308.3,553.4 299.1,567.4 284.6,575.8 267.9,509.7 	"/>
	<polyline opacity="0.5" fill="none" stroke="#CCCCCC" stroke-width="0.75" stroke-miterlimit="10" points="189,600.7 299.5,585 
		293.8,602.7 282.7,609.8 226.1,560.1 236,550.2 271.2,635.5 192.8,553.6 	"/>
	<polyline opacity="0.5" fill="none" stroke="#CCCCCC" stroke-width="0.75" stroke-miterlimit="10" points="351.1,697.7 
		366.3,657.8 449.4,678.3 361.3,703.7 467.8,731.9 412.9,660.5 	"/>
	<polyline opacity="0.5" fill="none" stroke="#CCCCCC" stroke-width="0.75" stroke-miterlimit="10" points="183.6,765.9 327.8,728 
		312.1,702.4 231,691.3 213.8,722.3 304.9,679.5 	"/>
	<circle fill="#FBBC17" cx="135.2" cy="727.7" r="1.5"/>
	<circle fill="#FBBC17" cx="272.2" cy="661.1" r="1.5"/>
	<circle fill="#FBBC17" cx="327.8" cy="727.7" r="1.5"/>
	<circle fill="#FBBC17" cx="412.7" cy="660.2" r="1.5"/>
	<circle fill="#FBBC17" cx="518.4" cy="744.5" r="1.5"/>
	<circle fill="#FBBC17" cx="554.7" cy="602" r="1.5"/>
	<circle fill="#FBBC17" cx="503.4" cy="616.3" r="1.5"/>
	<circle fill="#FBBC17" cx="361.3" cy="703.6" r="1.5"/>
	<circle fill="#FBBC17" cx="268" cy="509.7" r="1.5"/>
	<circle fill="#FBBC17" cx="481.8" cy="488.4" r="1.5"/>
	<circle fill="#FBBC17" cx="350" cy="502" r="1.5"/>
	<circle fill="#FBBC17" cx="356.5" cy="490.6" r="1.5"/>
	<circle fill="#FBBC17" cx="102" cy="494" r="1.5"/>
	<circle fill="#FBBC17" cx="227.5" cy="589.5" r="1.5"/>
	<circle fill="#FBBC17" cx="241" cy="573.2" r="1.5"/>
	<circle fill="#FBBC17" cx="178.5" cy="644.6" r="1.5"/>
	<circle fill="#FBBC17" cx="128.2" cy="699.3" r="1.5"/>
	<circle fill="#FBBC17" cx="89.2" cy="615.6" r="1.5"/>
</g>
</svg>
