<?xml version="1.0" encoding="utf-8"?>
<!-- Generator: Adobe Illustrator 18.1.0, SVG Export Plug-In . SVG Version: 6.00 Build 0)  -->
<svg version="1.1" id="Capa_1" xmlns="http://www.w3.org/2000/svg" xmlns:xlink="http://www.w3.org/1999/xlink" x="0px" y="0px"
	 viewBox="-333 373.5 184 47" enable-background="new -333 373.5 184 47" xml:space="preserve">
<g id="Layer_1_copy">
	<path fill="#FFFFFF" d="M-281.8,384.6c-0.5-0.9-1.2-1.7-2.1-2.2c-0.9-0.6-2-1-3.3-1.2c-1.3-0.2-2.8-0.3-4.5-0.4l-7.9,0
		c-0.8,0-1.6,0.7-1.8,1.5l-5.3,23.3c-0.2,0.8,0.3,1.5,1.2,1.5h3.8c0.8,0,1.6-0.6,1.8-1.5l1.3-5.7c0.2-0.8,1-1.4,1.8-1.4h1.1
		c4.7,0,8.3-1,10.8-2.9c2.6-1.9,3.9-4.4,3.9-7.6C-281.1,386.7-281.3,385.6-281.8,384.6z M-290,392.3c-1.2,0.8-2.8,1.3-4.8,1.3h-0.9
		c-0.8,0-1.3-0.7-1.2-1.5l1.1-4.9c0.2-0.8,1-1.5,1.8-1.4l1.2,0c1.5,0,2.6,0.3,3.3,0.7c0.7,0.5,1.1,1.3,1.1,2.3
		C-288.3,390.2-288.9,391.4-290,392.3z M-237.7,389.2l-15.2,25.7c-0.5,0.8-1.6,1.4-2.4,1.4l-3.9,0c-0.8,0-1.1-0.7-0.6-1.5l3.4-5.9
		c0,0,0.3-0.3,0-2.3c-0.5-3.5-3.1-18.2-3.1-18.2c-0.2-0.8,0.3-1.5,1.1-1.5l3.4,0c1,0,1.9,0.7,2.1,1.5l1.7,10.2l0.6,0
		c0.5-0.9,6-10.3,6-10.3c0.5-0.8,1.6-1.5,2.4-1.5c0,0,3.7,0,4.6,0C-236.2,387-237.7,389.2-237.7,389.2z M-212.7,384.7
		c-0.5-0.9-1.2-1.7-2.1-2.3c-0.9-0.6-2-1-3.3-1.2c-1.3-0.2-2.8-0.3-4.5-0.3l-8,0c-0.8,0-1.6,0.7-1.8,1.4l-5.4,23.3
		c-0.2,0.8,0.3,1.4,1.1,1.4l3.8,0c0.8,0,1.6-0.6,1.8-1.4l1.3-5.7c0.2-0.8,1-1.5,1.8-1.4h1.1c4.7,0,8.3-1,10.9-2.9
		c2.6-1.9,3.9-4.4,3.9-7.6C-212,386.8-212.2,385.6-212.7,384.7z M-220.9,392.4c-1.1,0.8-2.8,1.2-4.8,1.2h-0.9
		c-0.8,0-1.4-0.7-1.2-1.5l1.2-4.9c0.2-0.8,1-1.5,1.8-1.4l1.2,0c1.5,0,2.6,0.2,3.3,0.7c0.7,0.5,1.1,1.3,1.1,2.3
		C-219.2,390.3-219.7,391.5-220.9,392.4z M-263.4,388c-1.4-0.8-3.7-1.2-6.8-1.2c-1.5,0-3.1,0.1-4.6,0.4c-1.1,0.2-1.3,0.2-2,0.4
		c-1.4,0.3-1.7,1.8-1.7,1.8l-0.5,1.9c-0.3,1.2,0.4,1.2,0.7,1.1c0.6-0.2,1-0.4,2.3-0.7c1.2-0.3,2.5-0.5,3.6-0.5
		c1.5,0,2.7,0.2,3.5,0.5c0.8,0.3,1.1,0.9,1.1,1.7l-0.1,0.5l-0.5,0.3c-2.2,0.1-3.7,0.3-5.6,0.6c-1.9,0.3-3.5,0.7-4.8,1.3
		c-1.5,0.6-2.5,1.5-3.3,2.6c-0.7,1.1-1.1,2.4-1.1,4c0,1.5,0.5,2.7,1.5,3.6c1,0.9,2.4,1.4,4,1.4c1,0,1.8-0.1,2.4-0.2l1.8-0.6l1.6-0.9
		l1.4-0.9l0,0l-0.1,0.6l0,0v0c-0.2,0.7,0.3,1.4,1,1.4l0,0h0.1h2.9h0.5l0,0c0.8-0.1,1.5-0.7,1.6-1.4l2.8-12l0.1-1l0.1-0.9
		C-261.3,390-262,388.8-263.4,388z M-269.6,401.5l-0.6,0.8l-1.5,0.8c-0.7,0.3-1.4,0.4-2,0.4c-0.9,0-1.7-0.1-2.2-0.4l-0.7-1.4
		c0-0.8,0.2-1.4,0.6-1.9l1.6-1.1c0.7-0.2,1.5-0.4,2.5-0.6c0.9-0.1,2.6-0.3,2.8-0.3l0.3,0.5C-268.9,398.5-269.4,400.6-269.6,401.5z
		 M-174.5,379.5h1.3v0.5h-1.3v1.7l0,0.5l0.1,0.3l0.2,0.2l0.4,0.1l0.3,0l0.2-0.1h0v0.6l-0.4,0.1l-0.4,0l-0.9-0.3l-0.3-1v-2h-0.4v-0.5
		h0.4v-1.1h0.6V379.5L-174.5,379.5z M-194.3,388c-1.4-0.8-3.7-1.2-6.8-1.2c-1.5,0-3.1,0.1-4.6,0.4c-1.1,0.2-1.3,0.2-2,0.4
		c-1.4,0.3-1.7,1.8-1.7,1.8l-0.5,1.9c-0.3,1.2,0.4,1.2,0.7,1.1c0.6-0.2,1-0.4,2.3-0.7c1.2-0.3,2.5-0.5,3.6-0.5
		c1.5,0,2.7,0.2,3.5,0.5c0.8,0.3,1.1,0.9,1.1,1.7l-0.1,0.5l-0.5,0.3c-2.2,0.1-3.7,0.3-5.6,0.6c-1.8,0.3-3.5,0.7-4.8,1.3
		c-1.4,0.6-2.5,1.5-3.3,2.6c-0.7,1.1-1.1,2.4-1.1,4c0,1.5,0.5,2.7,1.6,3.6c1,0.9,2.4,1.4,4,1.4c1,0,1.8-0.1,2.4-0.2l1.8-0.6l1.6-0.9
		l1.4-1l0,0l-0.1,0.6l0,0l0,0c-0.2,0.7,0.3,1.4,1,1.4l0,0h0.1l0,0c0.5,0,2.1,0,2.9,0h0.5l0.1,0c0.8-0.1,1.5-0.7,1.6-1.4l2.8-12
		l0.1-1l0.1-0.9C-192.1,390.1-192.8,388.8-194.3,388z M-200.4,401.5l-0.6,0.8l-1.5,0.8c-0.7,0.3-1.4,0.4-2,0.4c-1,0-1.7-0.1-2.2-0.4
		l-0.7-1.4c0-0.8,0.2-1.4,0.5-1.9c0.4-0.5,0.9-0.8,1.6-1.1c0.7-0.2,1.5-0.4,2.5-0.6c0.9-0.1,2.6-0.3,2.8-0.3l0.3,0.5
		C-199.7,398.5-200.2,400.6-200.4,401.5z M-180,382.6L-180,382.6l-5.1,23.1l-0.2,0.3c-0.3,0.6-0.9,1.2-1.6,1.2h-3.5l-0.1-0.1
		c-0.7-0.1-1.1-0.6-1-1.4l0,0l0.2-0.7l4.8-21.7l0.2-0.8l0.2-0.3c0.3-0.6,0.9-1.2,1.6-1.2h3.4C-180.3,381.1-179.9,381.8-180,382.6z
		 M-167.4,379.8l0.3,1v2.4h-0.6v-2.1l0-0.5l-0.1-0.4l-0.2-0.2l-0.4-0.1l-0.5,0.1l-0.5,0.3l0,0.2l0,0.2v2.4h-0.6v-2.1l0-0.5l-0.1-0.4
		l-0.2-0.2l-0.4-0.1l-0.5,0.1l-0.5,0.3v2.8h-0.6v-3.7h0.6v0.4l0.6-0.4l0.6-0.1l0.6,0.2l0.4,0.4l0.7-0.5l0.7-0.1L-167.4,379.8z"/>
</g>
</svg>
