<?xml version="1.0" encoding="utf-8"?>
<!-- Generator: Adobe Illustrator 18.1.0, SVG Export Plug-In . SVG Version: 6.00 Build 0)  -->
<svg version="1.1" id="_x32_" xmlns="http://www.w3.org/2000/svg" xmlns:xlink="http://www.w3.org/1999/xlink" x="0px" y="0px"
	 viewBox="0 0 57.5 79" enable-background="new 0 0 57.5 79" xml:space="preserve">
<g>
	<circle fill="#FFFFFF" stroke="#000000" stroke-miterlimit="10" cx="29.9" cy="30.7" r="19.1"/>
	<path fill="#CF2921" d="M13.1,30.4c0-9.1,7.4-16.5,16.5-16.6V5.5C15.9,5.6,4.8,16.7,4.8,30.4c0,13.4,23.7,40.1,24.8,41.4V46.9
		C20.5,46.9,13.1,39.5,13.1,30.4z"/>
	<path fill="#E52D1F" d="M54.5,30.4c0-13.7-11.1-24.8-24.9-24.8c0,0,0,0-0.1,0v8.3c0,0,0,0,0.1,0c9.1,0,16.6,7.4,16.6,16.6
		c0,9.2-7.4,16.6-16.6,16.6c0,0,0,0-0.1,0v24.8c0,0,0.1,0.1,0.1,0.1S54.5,44.1,54.5,30.4z"/>
	<path fill="#FDBC14" d="M29.7,22.1C29.7,22.1,29.6,22.1,29.7,22.1l-0.1,16.6c0,0,0,0,0.1,0c4.6,0,8.3-3.7,8.3-8.3
		C38,25.8,34.3,22.1,29.7,22.1z"/>
	<path fill="#E1A915" d="M21.4,30.4c0,4.6,3.7,8.3,8.2,8.3V22.1C25.1,22.1,21.4,25.8,21.4,30.4z"/>
</g>
</svg>
